<svg xmlns="http://www.w3.org/2000/svg" viewBox="0 0 128 128">
  <defs>
    <linearGradient id="bg" x1="0" y1="0" x2="1" y2="1">
      <stop offset="0%" stop-color="#d33682"/>
      <stop offset="100%" stop-color="#9b2360"/>
    </linearGradient>
  </defs>
  <rect width="128" height="128" rx="20" fill="url(#bg)"/>
  <!-- Debian swirl simplified -->
  <path d="M64,24 Q88,24 92,48 Q96,72 72,76 Q56,78 52,64 Q48,50 60,46 Q72,42 74,54 Q76,66 64,68" 
        fill="none" stroke="white" stroke-width="4" stroke-linecap="round" opacity="0.9"/>
  <!-- Translation arrow -->
  <g transform="translate(32,88)" opacity="0.85">
    <rect x="0" y="2" width="40" height="12" rx="6" fill="white" opacity="0.3"/>
    <text x="20" y="12" font-family="sans-serif" font-size="9" fill="white" text-anchor="middle" font-weight="bold">EN</text>
  </g>
  <polygon points="78,94 86,88 86,92 96,92 96,100 86,100 86,104" fill="#f6d32d" opacity="0.9"/>
  <!-- Package icon small -->
  <rect x="24" y="20" width="16" height="16" rx="3" fill="#f6d32d" opacity="0.75"/>
  <text x="32" y="31" font-family="monospace" font-size="8" fill="#9b2360" text-anchor="middle" font-weight="bold">📦</text>
</svg>
